<svg width="240" height="241" viewBox="0 0 240 241" fill="none" xmlns="http://www.w3.org/2000/svg">
<path d="M161.4 21.3636C160.92 24.3636 160.68 27.3636 160.68 30.3636C160.68 57.3636 182.52 79.1916 209.4 79.1916C212.4 79.1916 215.28 78.8436 218.28 78.3636V175.192C218.28 215.884 194.28 240.004 153.48 240.004H64.812C24 240.004 0 215.884 0 175.192V86.4036C0 45.6036 24 21.3636 64.812 21.3636H161.4ZM163.812 94.3236C160.56 93.9636 157.332 95.4036 155.4 98.0436L126.372 135.604L93.12 109.444C91.08 107.884 88.68 107.272 86.28 107.524C83.892 107.884 81.732 109.192 80.28 111.112L44.772 157.324L44.04 158.404C42 162.232 42.96 167.152 46.56 169.804C48.24 170.884 50.04 171.604 52.08 171.604C54.852 171.724 57.48 170.272 59.16 168.004L89.28 129.232L123.48 154.924L124.56 155.632C128.4 157.672 133.2 156.724 135.96 153.112L170.64 108.364L170.16 108.604C172.08 105.964 172.44 102.604 171.12 99.6036C169.812 96.6036 166.92 94.5636 163.812 94.3236ZM211.081 0C227.041 0 240.001 12.96 240.001 28.92C240.001 44.88 227.041 57.84 211.081 57.84C195.121 57.84 182.161 44.88 182.161 28.92C182.161 12.96 195.121 0 211.081 0Z" fill="#52CC99"/>
</svg>
