<svg width="12" height="13" viewBox="0 0 12 13" fill="none" xmlns="http://www.w3.org/2000/svg">
<path d="M6 3.5C6.6475 3.5 7.16667 2.975 7.16667 2.33333C7.16667 2.11167 7.10833 1.9075 6.9975 1.7325L6 0L5.0025 1.7325C4.89167 1.9075 4.83333 2.11167 4.83333 2.33333C4.83333 2.975 5.35833 3.5 6 3.5ZM8.68333 9.3275L8.05917 8.70333L7.42917 9.3275C6.67083 10.0858 5.34083 10.0917 4.57667 9.3275L3.9525 8.70333L3.31667 9.3275C2.9375 9.70667 2.43 9.91667 1.89333 9.91667C1.4675 9.91667 1.07667 9.7825 0.75 9.56083V12.25C0.75 12.5708 1.0125 12.8333 1.33333 12.8333H10.6667C10.9875 12.8333 11.25 12.5708 11.25 12.25V9.56083C10.9233 9.7825 10.5325 9.91667 10.1067 9.91667C9.57 9.91667 9.0625 9.70667 8.68333 9.3275ZM9.5 5.25H6.58333V4.08333H5.41667V5.25H2.5C1.53167 5.25 0.75 6.03167 0.75 7V7.89833C0.75 8.52833 1.26333 9.04167 1.89333 9.04167C2.19667 9.04167 2.48833 8.925 2.69833 8.70917L3.94667 7.46667L5.18917 8.70917C5.62083 9.14083 6.37333 9.14083 6.805 8.70917L8.05333 7.46667L9.29583 8.70917C9.51167 8.925 9.7975 9.04167 10.1008 9.04167C10.7308 9.04167 11.2442 8.52833 11.2442 7.89833V7C11.25 6.03167 10.4683 5.25 9.5 5.25Z" fill="#FF9040"/>
</svg>
