<svg width="288" height="288" viewBox="0 0 288 288" fill="none" xmlns="http://www.w3.org/2000/svg">
<path d="M36.0812 105.268C35.4066 91.8703 38.9507 78.6366 46.1226 67.5406L47.9908 64.8123L48.1453 64.6628L49.4422 63.1409L50.801 61.587L50.9554 61.4268C53.5494 58.7675 56.4213 56.4286 59.5196 54.4315L60.3946 53.8774L61.2695 53.3635L63.3282 52.178C64.162 51.7828 65.0678 51.3129 65.9016 50.9178C66.5089 50.6828 67.1163 50.3731 67.7236 50.1381C68.8662 49.6575 70.0808 49.1876 71.2954 48.7925C71.7072 48.5896 72.1395 48.4294 72.5821 48.3226L73.0737 48.125L73.6115 47.9274C79.1494 46.272 84.8418 45.1293 90.5958 44.6059L90 44.6758V32.7401C90 27.9544 93.8603 24.0849 98.6346 24.0849C103.409 24.0849 107.28 27.9544 107.28 32.7401V70.465C107.28 75.2507 103.409 79.131 98.6346 79.131C93.8603 79.131 90 75.2507 90 70.465L90.0006 61.7433C84.3324 62.3108 78.7667 63.7211 73.488 65.9551C59.866 72.0832 53.3694 83.7536 52.7538 102.248L52.7053 105.225V109.871H235.303V105.108C235.652 96.5423 233.933 88.0198 230.29 80.3196C226.79 73.7301 221.19 68.6144 214.427 65.8376C210.12 63.9836 205.609 62.69 200.999 61.9843L198 61.6198L198 70.4215C198 75.1865 194.134 79.046 189.36 79.046C184.587 79.046 180.72 75.1865 180.72 70.4215L180.72 60.9718L107.364 60.9782V43.8156L180.72 43.8118L180.72 32.6893C180.677 27.9243 184.522 24.0325 189.296 24C194.069 23.9678 197.968 27.7949 198 32.56L198.007 44.6094C202.2 45.023 206.358 45.7544 210.451 46.7994L214.52 47.9488C214.849 48.0128 215.096 48.0983 215.549 48.2585C216.002 48.4187 216.383 48.5789 216.836 48.7284C218.04 49.1235 219.162 49.5935 220.325 50.0741C220.995 50.309 221.612 50.6187 222.137 50.8537C223.043 51.2489 223.969 51.7188 224.71 52.1139C225.472 52.5091 226.203 52.947 226.841 53.2994C227.479 53.6518 227.974 54.047 228.509 54.3674C230.84 55.8733 233.056 57.5714 235.125 59.4392L237.145 61.3627L237.238 61.5229L238.649 63.0208L239.976 64.5987L240.048 64.7483C247.811 75.484 251.986 88.5221 252 101.88L251.916 105.225V109.871H252V202.922C252 243.499 229.339 264 184.429 264H103.468C58.6609 264 36 243.499 36 202.922V109.871H36.0812V105.268ZM193.391 194.955C187.828 194.955 183.399 199.523 183.399 205.152C183.502 210.782 187.931 215.35 193.391 215.35C198.85 215.35 203.279 210.782 203.279 205.152C203.279 199.523 198.85 194.955 193.391 194.955ZM144.051 194.849C138.489 194.955 134.06 199.523 134.06 205.152C134.06 210.782 138.592 215.35 144.051 215.35C149.511 215.35 153.94 210.782 153.94 205.046C153.837 199.523 149.511 194.955 144.051 194.849ZM94.6094 194.849C89.0472 194.849 84.618 199.523 84.721 205.152C84.721 210.782 89.1502 215.35 94.6094 215.35C100.069 215.35 104.498 210.676 104.498 205.046C104.498 199.416 100.069 194.849 94.6094 194.849ZM193.391 151.404C187.828 151.404 183.502 155.971 183.502 161.601C183.502 167.231 187.931 171.799 193.391 171.799C198.85 171.799 203.279 167.231 203.279 161.601C203.279 155.971 198.85 151.404 193.391 151.404ZM144.051 151.298C138.489 151.404 134.06 155.971 134.06 161.601C134.06 167.231 138.592 171.799 144.051 171.799C149.511 171.799 153.94 167.231 153.94 161.495C153.94 155.971 149.511 151.404 144.051 151.298ZM94.7124 151.298C89.1502 151.298 84.721 155.971 84.721 161.601C84.721 167.231 89.1502 171.799 94.6094 171.799C100.172 171.799 104.601 167.125 104.498 161.495C104.498 155.865 100.069 151.298 94.7124 151.298Z" fill="#FFBF66"/>
</svg>
