<svg width="14" height="16" viewBox="0 0 14 16" fill="none" xmlns="http://www.w3.org/2000/svg">
<path fill-rule="evenodd" clip-rule="evenodd" d="M8.95478 0.508897C8.92246 0.503137 8.88923 0.500122 8.85526 0.500122C8.82136 0.500122 8.78806 0.503137 8.75573 0.508897H4.0633C2.19783 0.508897 0.625305 2.02227 0.625305 3.86815V11.9209C0.625305 13.869 2.12593 15.3987 4.0633 15.3987H10.0543C11.8961 15.3987 13.4143 13.7922 13.4143 11.9209V5.0284C13.4143 4.88317 13.3581 4.74357 13.2575 4.63881L9.45803 0.68181C9.35198 0.571342 9.20543 0.508897 9.05228 0.508897H8.95478ZM8.29276 1.6333L4.0633 1.6339C2.8097 1.6339 1.7503 2.65345 1.7503 3.86815V11.9209C1.7503 13.2525 2.75212 14.2737 4.0633 14.2737H10.0543C11.2601 14.2737 12.2893 13.1846 12.2893 11.9209L12.2891 5.73744L11.6317 5.73967C11.3816 5.73937 11.0971 5.73884 10.7808 5.73812C9.45308 5.73532 8.36986 4.69523 8.29673 3.38568L8.29276 3.24437V1.6333ZM11.6733 4.613L10.7833 4.61313C10.0286 4.61153 9.41776 3.9993 9.41776 3.24437V2.26408L11.6733 4.613ZM6.73051 5.51807C7.01528 5.51807 7.25063 5.72969 7.28791 6.00424L7.29301 6.08057V9.64744L8.46091 8.47549C8.68013 8.25536 9.03623 8.25461 9.25636 8.47376C9.45653 8.67304 9.47536 8.98556 9.31238 9.20606L9.25808 9.26929L7.12973 11.4066L7.12883 11.4075C7.12876 11.4076 7.12861 11.4077 7.12853 11.4078C6.92866 11.6083 6.61516 11.6264 6.39473 11.4622L6.38963 11.4578C6.37088 11.4435 6.35311 11.4281 6.33631 11.4116L6.33158 11.4075L4.20307 9.26921C3.9839 9.04901 3.98472 8.69291 4.20489 8.47369C4.40504 8.27449 4.71758 8.25701 4.93742 8.42096L5.00038 8.47556L6.16801 9.64916V6.08057C6.16801 5.76991 6.41986 5.51807 6.73051 5.51807Z" fill="#D9F1E9"/>
</svg>
