<svg width="12" height="12" viewBox="0 0 12 12" fill="none" xmlns="http://www.w3.org/2000/svg">
<path fill-rule="evenodd" clip-rule="evenodd" d="M8.72143 0.172533C9.56055 0.120086 10.3881 0.411449 11.0116 0.982527C11.5827 1.60605 11.874 2.43353 11.8274 3.27849V8.7212C11.8798 9.56616 11.5827 10.3936 11.0174 11.0171C10.3938 11.5882 9.56055 11.8796 8.72143 11.8272H3.27868C2.43371 11.8796 1.60623 11.5882 0.9827 11.0171C0.411617 10.3936 0.120254 9.56616 0.172701 8.7212V3.27849C0.120254 2.43353 0.411617 1.60605 0.9827 0.982527C1.60623 0.411449 2.43371 0.120086 3.27868 0.172533H8.72143ZM5.40564 8.82609L9.32745 4.89267C9.68294 4.53135 9.68294 3.94863 9.32745 3.59316L8.56994 2.83561C8.20862 2.47431 7.62587 2.47431 7.26461 2.83561L6.87413 3.23187C6.81585 3.29014 6.81585 3.3892 6.87413 3.44748C6.87413 3.44748 7.80069 4.36819 7.81819 4.3915C7.8823 4.46143 7.92308 4.55466 7.92308 4.65956C7.92308 4.86934 7.75409 5.04416 7.53849 5.04416C7.43938 5.04416 7.34616 5.00339 7.28205 4.93928L6.30888 3.97194C6.26227 3.92532 6.18072 3.92532 6.13405 3.97194L3.35443 6.75158C3.16213 6.94384 3.05141 7.20028 3.04558 7.47415L3.01062 8.85519C3.01062 8.93097 3.03393 9.00091 3.08638 9.05335C3.13882 9.10579 3.20875 9.1349 3.2845 9.1349H4.65393C4.93367 9.1349 5.20171 9.02419 5.40564 8.82609Z" fill="#FF9040"/>
</svg>
