<svg width="288" height="288" viewBox="0 0 288 288" fill="none" xmlns="http://www.w3.org/2000/svg">
<path d="M194.292 24C231.36 24 252 45.36 252 81.96V205.92C252 243.12 231.36 264 194.292 264H93.72C57.24 264 36 243.12 36 205.92V81.96C36 45.36 57.24 24 93.72 24H194.292ZM96.96 188.88C93.36 188.52 89.88 190.2 87.96 193.32C86.04 196.32 86.04 200.28 87.96 203.4C89.88 206.4 93.36 208.2 96.96 207.72H191.04C195.828 207.24 199.44 203.148 199.44 198.36C199.44 193.44 195.828 189.36 191.04 188.88H96.96ZM191.04 134.148H96.96C91.788 134.148 87.6 138.36 87.6 143.52C87.6 148.68 91.788 152.88 96.96 152.88H191.04C196.2 152.88 200.4 148.68 200.4 143.52C200.4 138.36 196.2 134.148 191.04 134.148ZM132.828 79.8H96.96V79.92C91.788 79.92 87.6 84.12 87.6 89.28C87.6 94.44 91.788 98.64 96.96 98.64H132.828C138 98.64 142.2 94.44 142.2 89.148C142.2 84 138 79.8 132.828 79.8Z" fill="#FF6699"/>
</svg>
